<svg width="50" height="50" viewBox="0 0 50 50" fill="none" xmlns="http://www.w3.org/2000/svg">
<rect width="50" height="50" rx="25" fill="#115300" fill-opacity="0.6"/>
<path fill-rule="evenodd" clip-rule="evenodd" d="M25 43C34.941 43 43 34.941 43 25C43 15.0589 34.941 7 25 7C15.0589 7 7 15.0589 7 25C7 34.941 15.0589 43 25 43ZM26.35 19.6C26.35 18.8544 25.7456 18.25 25 18.25C24.2544 18.25 23.65 18.8544 23.65 19.6V23.65H19.6C18.8544 23.65 18.25 24.2544 18.25 25C18.25 25.7456 18.8544 26.35 19.6 26.35H23.65V30.4C23.65 31.1456 24.2544 31.75 25 31.75C25.7456 31.75 26.35 31.1456 26.35 30.4V26.35H30.4C31.1456 26.35 31.75 25.7456 31.75 25C31.75 24.2544 31.1456 23.65 30.4 23.65H26.35V19.6Z" fill="#62AE4E" fill-opacity="0.7"/>
</svg>
