<svg width="50" height="50" viewBox="0 0 50 50" fill="none" xmlns="http://www.w3.org/2000/svg">
<rect width="50" height="50" rx="25" fill="#A44000" fill-opacity="0.8"/>
<path fill-rule="evenodd" clip-rule="evenodd" d="M28.9643 9L30.75 10.7778H37V14.3333H12V10.7778H18.25L20.0357 9H28.9643ZM17.3571 41C15.3929 41 13.7857 39.4 13.7857 37.4444V16.1111H35.2143V37.4444C35.2143 39.4 33.6071 41 31.6429 41H17.3571ZM24.5 26.0489L28.2857 22.28L30.8036 24.7867L27.0179 28.5556L30.8036 32.3244L28.2857 34.8311L24.5 31.0622L20.7143 34.8311L18.1964 32.3244L21.9821 28.5556L18.1786 24.7867L20.6964 22.28L24.5 26.0489Z" fill="#FF941E" fill-opacity="0.8"/>
</svg>
