<svg width="419" height="362" viewBox="0 0 419 362" fill="none" xmlns="http://www.w3.org/2000/svg">
<g style="mix-blend-mode:color-burn">
<path d="M404.672 0H14.3205C6.48157 0 0.125 6.34401 0.125 14.1704V297.59C0.125 305.417 6.48157 311.761 14.3205 311.761H152.72C152.72 327.414 140.011 340.102 124.329 340.102V361.357H294.667V340.097C278.993 340.097 266.276 327.414 266.276 311.757H404.676C412.519 311.757 418.875 305.413 418.875 297.586V14.1704C418.871 6.34401 412.515 0 404.672 0ZM209.498 290.505C203.619 290.505 198.854 285.748 198.854 279.882C198.854 274.011 203.619 269.25 209.498 269.25C215.377 269.25 220.143 274.011 220.143 279.882C220.143 285.748 215.377 290.505 209.498 290.505ZM78.4934 90.9852L102.651 72.2002L79.8543 48.1391L96.3445 22.3904L94.5816 21.2597H397.586V247.994H397.578H21.4182V21.2556H92.0942L74.5613 48.6374L96.4325 71.7271" fill="#9C3535"/>
<path d="M134.341 122.613C135.099 123.371 136.092 123.752 137.084 123.752C138.077 123.752 139.069 123.371 139.827 122.613L153.909 108.531L167.992 122.613C168.75 123.371 169.742 123.752 170.735 123.752C171.727 123.752 172.719 123.371 173.477 122.613C174.997 121.097 174.997 118.639 173.477 117.123L159.395 103.041L173.477 88.9585C174.997 87.4426 174.997 84.9846 173.477 83.4687C171.961 81.9487 169.503 81.9487 167.988 83.4687L153.905 97.5512L139.823 83.4687C138.307 81.9487 135.849 81.9487 134.333 83.4687C132.813 84.9846 132.813 87.4426 134.333 88.9585L148.415 103.041L134.333 117.123C132.821 118.639 132.821 121.097 134.341 122.613Z" fill="#9C3535"/>
<path d="M262.629 79.8759C249.853 79.8759 239.468 90.2691 239.468 103.041C239.468 115.813 249.861 126.21 262.629 126.21C275.405 126.21 285.798 115.813 285.798 103.041C285.798 90.2691 275.4 79.8759 262.629 79.8759ZM262.629 118.706C253.99 118.706 246.976 111.68 246.976 103.045C246.976 94.4063 253.998 87.3882 262.629 87.3882C271.267 87.3882 278.29 94.4105 278.29 103.045C278.29 111.675 271.263 118.706 262.629 118.706Z" fill="#9C3535"/>
<path d="M260.489 178.147L242.001 196.639L224.59 179.232L205.005 198.817L188.687 182.498L171.279 199.905L153.872 182.498L134.157 202.213C132.884 203.481 132.884 205.55 134.157 206.827C135.43 208.1 137.499 208.1 138.772 206.827L153.868 191.731L171.275 209.139L188.682 191.731L205.001 208.05L224.59 188.465L241.993 205.868L260.485 187.376L277.758 204.65C279.035 205.927 281.104 205.927 282.373 204.65C283.65 203.377 283.65 201.308 282.373 200.035L260.489 178.147Z" fill="#9C3535"/>
</g>
</svg>
