<svg width="423" height="365" viewBox="0 0 423 365" fill="none" xmlns="http://www.w3.org/2000/svg">
<path d="M80.4934 92.9852L104.651 74.2002L81.8543 50.1391L98.3445 24.3904L96.5816 23.2597H399.586V249.994H399.578H23.4182V23.2556H94.0942L76.5613 50.6374L98.4325 73.7271M406.672 2H16.3205C8.48157 2 2.125 8.34401 2.125 16.1704V299.59C2.125 307.417 8.48157 313.761 16.3205 313.761H154.72C154.72 329.414 142.011 342.102 126.329 342.102V363.357H296.667V342.097C280.993 342.097 268.276 329.414 268.276 313.757H406.676C414.519 313.757 420.875 307.413 420.875 299.586V16.1704C420.871 8.34401 414.515 2 406.672 2ZM211.498 292.505C205.619 292.505 200.854 287.748 200.854 281.882C200.854 276.011 205.619 271.25 211.498 271.25C217.377 271.25 222.143 276.011 222.143 281.882C222.143 287.748 217.377 292.505 211.498 292.505Z" stroke="#690A0A" stroke-width="3" stroke-linejoin="round" stroke-dasharray="6 6"/>
<path d="M136.341 124.613C137.099 125.371 138.092 125.752 139.084 125.752C140.077 125.752 141.069 125.371 141.827 124.613L155.909 110.531L169.992 124.613C170.75 125.371 171.742 125.752 172.735 125.752C173.727 125.752 174.719 125.371 175.477 124.613C176.997 123.097 176.997 120.639 175.477 119.123L161.395 105.041L175.477 90.9585C176.997 89.4426 176.997 86.9846 175.477 85.4687C173.961 83.9487 171.503 83.9487 169.988 85.4687L155.905 99.5512L141.823 85.4687C140.307 83.9487 137.849 83.9487 136.333 85.4687C134.813 86.9846 134.813 89.4426 136.333 90.9585L150.415 105.041L136.333 119.123C134.821 120.639 134.821 123.097 136.341 124.613Z" stroke="#690A0A" stroke-width="3" stroke-linecap="round" stroke-linejoin="round" stroke-dasharray="6 6"/>
<path d="M264.629 81.8759C251.853 81.8759 241.468 92.2691 241.468 105.041C241.468 117.813 251.861 128.21 264.629 128.21C277.405 128.21 287.798 117.813 287.798 105.041C287.798 92.2691 277.4 81.8759 264.629 81.8759ZM264.629 120.706C255.99 120.706 248.976 113.68 248.976 105.045C248.976 96.4063 255.998 89.3882 264.629 89.3882C273.267 89.3882 280.29 96.4105 280.29 105.045C280.29 113.675 273.263 120.706 264.629 120.706Z" stroke="#690A0A" stroke-width="3" stroke-linecap="round" stroke-linejoin="round" stroke-dasharray="6 6"/>
<path d="M262.489 180.147L244.001 198.639L226.59 181.232L207.005 200.817L190.687 184.498L173.279 201.905L155.872 184.498L136.157 204.213C134.884 205.481 134.884 207.55 136.157 208.827C137.43 210.1 139.499 210.1 140.772 208.827L155.868 193.731L173.275 211.139L190.682 193.731L207.001 210.05L226.59 190.465L243.993 207.868L262.485 189.376L279.758 206.65C281.035 207.927 283.104 207.927 284.373 206.65C285.65 205.377 285.65 203.308 284.373 202.035L262.489 180.147Z" stroke="#690A0A" stroke-width="3" stroke-linecap="round" stroke-linejoin="round" stroke-dasharray="6 6"/>
</svg>
