<?xml version="1.0" standalone="no"?>
<svg viewBox="0 0 200 200" xmlns="http://www.w3.org/2000/svg">
  <path fill="#A7F0BA" d="M36.5,-62.1C48.5,-56.4,60.3,-49,64.7,-38.3C69.1,-27.7,66.3,-13.9,66.8,0.3C67.4,14.5,71.4,29,66.5,38.9C61.6,48.8,48,54.1,35.4,61.9C22.8,69.7,11.4,80.1,-2,83.5C-15.4,86.9,-30.7,83.4,-42.2,74.9C-53.7,66.5,-61.3,53.1,-66.5,39.8C-71.7,26.5,-74.5,13.3,-75.9,-0.8C-77.2,-14.8,-77,-29.6,-70.6,-40.9C-64.3,-52.2,-51.7,-59.9,-38.9,-65.2C-26.1,-70.5,-13,-73.3,-0.4,-72.7C12.3,-72,24.5,-67.9,36.5,-62.1Z" transform="translate(100 100)" />
</svg>
