<svg width="49" height="49" viewBox="0 0 49 49" fill="none" xmlns="http://www.w3.org/2000/svg">
<rect width="49" height="49" rx="24.5" fill="#115300"/>
<path d="M10.4203 26.356H31.924C32.949 26.356 33.78 25.525 33.78 24.5C33.78 23.4749 32.949 22.6439 31.924 22.6439H10.4203L12.82 20.2443C13.5449 19.5196 13.5449 18.3443 12.82 17.6194C12.0954 16.8946 10.9202 16.8946 10.1952 17.6194L4.62739 23.1873C4.58433 23.2302 4.54374 23.2751 4.50513 23.3221C4.49573 23.3336 4.48769 23.346 4.47853 23.3578C4.45019 23.3938 4.42235 23.4299 4.39686 23.468C4.38944 23.4792 4.38338 23.4909 4.37608 23.5022C4.35059 23.542 4.32559 23.5822 4.30307 23.6242C4.29874 23.6325 4.29515 23.6412 4.29082 23.6495C4.26743 23.695 4.24491 23.741 4.22524 23.7885C4.22276 23.7943 4.22103 23.8005 4.21868 23.8064C4.19851 23.8564 4.17983 23.907 4.16399 23.9591C4.16189 23.9657 4.16077 23.9725 4.15892 23.9792C4.14394 24.0303 4.13021 24.0819 4.11969 24.1347C4.1166 24.1504 4.11524 24.1666 4.11239 24.1825C4.10472 24.2263 4.09705 24.2701 4.09272 24.3148C4.08641 24.376 4.08331 24.4379 4.08331 24.5C4.08331 24.5621 4.08641 24.624 4.09272 24.6853C4.09705 24.7306 4.10497 24.7748 4.11252 24.819C4.11524 24.8343 4.1166 24.85 4.11969 24.8653C4.13033 24.9186 4.14394 24.9707 4.15904 25.0223C4.1609 25.0283 4.16201 25.0348 4.16387 25.0408C4.17983 25.0932 4.19851 25.1443 4.21893 25.1948C4.22116 25.2002 4.22277 25.206 4.22512 25.2115C4.24491 25.2594 4.26756 25.3056 4.29119 25.3513C4.29528 25.3593 4.29874 25.3678 4.30295 25.3758C4.32571 25.418 4.35083 25.4586 4.37669 25.4988C4.38362 25.5097 4.38956 25.5212 4.39674 25.5318C4.42235 25.5701 4.45044 25.6064 4.47865 25.6426C4.48769 25.6542 4.49573 25.6665 4.50501 25.6778C4.54374 25.7247 4.58433 25.7698 4.62726 25.8127L10.1951 31.3805C10.5575 31.7431 11.0325 31.9242 11.5076 31.9242C11.9826 31.9242 12.4576 31.7431 12.8199 31.3805C13.5448 30.6557 13.5448 29.4805 12.8199 28.7557L10.4203 26.356Z" fill="#62AE4E"/>
<path d="M29.734 9.31729C24.6677 9.31729 19.954 11.8306 17.1248 16.0403C16.5531 16.891 16.7793 18.0442 17.63 18.616C18.4808 19.1877 19.6339 18.9618 20.2058 18.1108C22.3441 14.9289 25.906 13.0293 29.734 13.0293C36.0588 13.0294 41.2045 18.175 41.2045 24.5C41.2045 30.825 36.0588 35.9706 29.734 35.9706C25.9173 35.9706 22.3612 34.0795 20.2213 30.9121C19.6473 30.0626 18.4938 29.8394 17.6442 30.4132C16.7949 30.987 16.5714 32.1408 17.1453 32.9901C19.9765 37.1808 24.6825 39.6827 29.734 39.6827C38.1057 39.6827 44.9167 32.8718 44.9167 24.5C44.9167 16.1282 38.1057 9.31729 29.734 9.31729Z" fill="#62AE4E"/>
</svg>
