<svg width="49" height="49" viewBox="0 0 49 49" fill="none" xmlns="http://www.w3.org/2000/svg">
<rect width="49" height="49" rx="24.5" fill="#7B3102"/>
<path d="M10.4202 26.356H31.9239C32.949 26.356 33.78 25.525 33.78 24.5C33.78 23.4749 32.949 22.6439 31.9239 22.6439H10.4202L12.82 20.2443C13.5448 19.5196 13.5448 18.3443 12.82 17.6194C12.0954 16.8946 10.9201 16.8946 10.1951 17.6194L4.62733 23.1873C4.58426 23.2302 4.54368 23.2751 4.50507 23.3221C4.49567 23.3336 4.48763 23.346 4.47847 23.3578C4.45013 23.3938 4.42229 23.4299 4.3968 23.468C4.38938 23.4792 4.38332 23.4909 4.37601 23.5022C4.35052 23.542 4.32553 23.5822 4.30301 23.6242C4.29868 23.6325 4.29509 23.6412 4.29076 23.6495C4.26737 23.695 4.24485 23.741 4.22518 23.7885C4.2227 23.7943 4.22097 23.8005 4.21862 23.8064C4.19845 23.8564 4.17977 23.907 4.16393 23.9591C4.16183 23.9657 4.16071 23.9725 4.15886 23.9792C4.14388 24.0303 4.13015 24.0819 4.11963 24.1347C4.11654 24.1504 4.11518 24.1666 4.11233 24.1825C4.10466 24.2263 4.09699 24.2701 4.09266 24.3148C4.08635 24.376 4.08325 24.4379 4.08325 24.5C4.08325 24.5621 4.08635 24.624 4.09266 24.6853C4.09699 24.7306 4.10491 24.7748 4.11245 24.819C4.11518 24.8343 4.11654 24.85 4.11963 24.8653C4.13027 24.9186 4.14388 24.9707 4.15898 25.0223C4.16084 25.0283 4.16195 25.0348 4.1638 25.0408C4.17977 25.0932 4.19845 25.1443 4.21887 25.1948C4.2211 25.2002 4.2227 25.206 4.22505 25.2115C4.24485 25.2594 4.2675 25.3056 4.29113 25.3513C4.29521 25.3593 4.29868 25.3678 4.30289 25.3758C4.32565 25.418 4.35077 25.4586 4.37663 25.4988C4.38356 25.5097 4.3895 25.5212 4.39668 25.5318C4.42229 25.5701 4.45038 25.6064 4.47859 25.6426C4.48763 25.6542 4.49567 25.6665 4.50495 25.6778C4.54368 25.7247 4.58426 25.7698 4.6272 25.8127L10.195 31.3805C10.5574 31.7431 11.0325 31.9242 11.5075 31.9242C11.9825 31.9242 12.4575 31.7431 12.8199 31.3805C13.5447 30.6557 13.5447 29.4805 12.8199 28.7557L10.4202 26.356Z" fill="#FFA344"/>
<path d="M29.734 9.31729C24.6677 9.31729 19.954 11.8306 17.1248 16.0403C16.5531 16.891 16.7793 18.0442 17.63 18.616C18.4808 19.1877 19.6339 18.9618 20.2058 18.1108C22.3441 14.9289 25.906 13.0293 29.734 13.0293C36.0588 13.0294 41.2045 18.175 41.2045 24.5C41.2045 30.825 36.0588 35.9706 29.734 35.9706C25.9173 35.9706 22.3612 34.0795 20.2213 30.9121C19.6473 30.0626 18.4938 29.8394 17.6442 30.4132C16.7949 30.987 16.5714 32.1408 17.1453 32.9901C19.9765 37.1808 24.6825 39.6827 29.734 39.6827C38.1057 39.6827 44.9167 32.8718 44.9167 24.5C44.9167 16.1282 38.1057 9.31729 29.734 9.31729Z" fill="#FFA344"/>
</svg>
