<svg width="51" height="51" viewBox="0 0 51 51" fill="none" xmlns="http://www.w3.org/2000/svg">
<path d="M25.5 7.35363C21.911 7.35372 18.4027 8.41806 15.4186 10.412C12.4345 12.406 10.1087 15.2401 8.73532 18.5559C7.36192 21.8717 7.0026 25.5203 7.7028 29.0403C8.403 32.5603 10.1313 35.7936 12.669 38.3314C15.2068 40.8692 18.4402 42.5975 21.9602 43.2977C25.4802 43.9979 29.1288 43.6385 32.4446 42.2651C35.7604 40.8917 38.5944 38.566 40.5884 35.5819C42.5824 32.5978 43.6467 29.0894 43.6468 25.5005C43.6469 23.1174 43.1775 20.7576 42.2656 18.5559C41.3536 16.3542 40.0169 14.3537 38.3318 12.6686C36.6468 10.9835 34.6462 9.64684 32.4445 8.73489C30.2428 7.82294 27.8831 7.35359 25.5 7.35363ZM25.5 14.5089C26.5845 14.509 27.6447 14.8307 28.5464 15.4333C29.4481 16.0359 30.1509 16.8923 30.5659 17.8943C30.9808 18.8963 31.0893 19.9989 30.8777 21.0626C30.666 22.1263 30.1437 23.1033 29.3768 23.8701C28.6098 24.6369 27.6327 25.1591 26.569 25.3706C25.5053 25.5821 24.4028 25.4735 23.4008 25.0584C22.3989 24.6432 21.5425 23.9403 20.94 23.0385C20.3376 22.1367 20.016 21.0765 20.0161 19.992C20.0161 19.2719 20.158 18.5588 20.4336 17.8935C20.7092 17.2282 21.1131 16.6238 21.6224 16.1146C22.1316 15.6054 22.7361 15.2016 23.4015 14.9261C24.0668 14.6506 24.7799 14.5088 25.5 14.5089ZM25.5517 35.2996H17.4982C17.4982 29.8954 20.4388 27.9711 22.3676 26.2446C23.3283 26.7685 24.4052 27.043 25.4996 27.043C26.5939 27.043 27.6708 26.7685 28.6315 26.2446C30.5602 27.9711 33.5009 29.8954 33.5009 35.2996H25.5517Z" fill="#7886C7"/>
</svg>
